<svg width="0" height="0" class="hidden">
  <symbol xmlns="http://www.w3.org/2000/svg" viewBox="0 0 11 19" id="back-arrow">
    <path fill-rule="evenodd" clip-rule="evenodd"
      d="M9.53624 18.8788L11 17.4339L2.92751 9.43942L11 1.44495L9.53624 0L0 9.43942L9.53624 18.8788Z"></path>
  </symbol>
  <symbol xmlns="http://www.w3.org/2000/svg" viewBox="0 0 9 15" id="right-arrow">
    <path fill-rule="evenodd" clip-rule="evenodd"
      d="M1.46376 -1.61251e-06L2.13767e-06 1.45671L6.07249 7.5L1.2735e-07 13.5433L1.46376 15L9 7.5L1.46376 -1.61251e-06Z"></path>
  </symbol>
  <symbol xmlns="http://www.w3.org/2000/svg" viewBox="0 0 22 26" id="basket">
    <path
      d="M21.9973 24.116V24.1008L20.5989 7.22617C20.5374 6.2207 19.6974 5.43359 18.6781 5.43359H16.8033C16.6292 2.40703 14.0937 0 10.9947 0C7.9009 0 5.36027 2.40703 5.19124 5.43359H3.3165C2.29717 5.43359 1.45713 6.2207 1.39566 7.22617L0.00241242 24.0906V24.116C-0.0231987 24.6035 0.156079 25.0859 0.494147 25.4414C0.832214 25.7969 1.3137 26 1.80544 26H20.1943C20.686 26 21.1624 25.7969 21.5056 25.4414C21.8385 25.0859 22.0229 24.6035 21.9973 24.116ZM10.9947 1.82812C13.0744 1.82812 14.7801 3.41758 14.9491 5.43359H7.04036C7.2094 3.41758 8.92022 1.82812 10.9947 1.82812ZM1.84642 24.1719L3.23966 7.36328V7.33789C3.23966 7.29727 3.27552 7.26172 3.32162 7.26172H18.6832C18.7242 7.26172 18.76 7.29219 18.7652 7.33789V7.35313L20.1482 24.1719H1.84642Z"
    ></path>
  </symbol>
  <symbol xmlns="http://www.w3.org/2000/svg" viewBox="0 0 32 32" id="basket-alert">
    <circle cx="24.5" cy="7.5" r="4.5" fill="#FF7D4E"></circle>
    <path fill-rule="evenodd" clip-rule="evenodd"
      d="M18.1998 3.4293C17.5196 3.15261 16.775 3 15.9947 3C12.9009 3 10.3603 5.40703 10.1912 8.43359H8.3165C7.29717 8.43359 6.45713 9.2207 6.39566 10.2262L5.00241 27.0906V27.116C4.9768 27.6035 5.15608 28.0859 5.49415 28.4414C5.83221 28.7969 6.3137 29 6.80544 29H25.1943C25.686 29 26.1624 28.7969 26.5056 28.4414C26.8385 28.0859 27.0229 27.6035 26.9973 27.116V27.1008L25.9824 14.8535C25.5032 14.9496 25.0075 15 24.5 15C24.3815 15 24.2637 14.9973 24.1466 14.9918L25.1482 27.1719H6.84642L8.23966 10.3633V10.3379C8.23966 10.2973 8.27552 10.2617 8.32162 10.2617H17.5248C17.2959 9.68409 17.1367 9.07126 17.0575 8.43359H12.0404C12.2094 6.41758 13.9202 4.82812 15.9947 4.82812C16.4889 4.82812 16.962 4.91789 17.3984 5.08181C17.5982 4.49488 17.8687 3.94066 18.1998 3.4293Z"
    ></path>
  </symbol>
  <symbol xmlns="http://www.w3.org/2000/svg" viewBox="0 0 18 18" id="Close">
    <path d="M1 17L17 0.999998" stroke="black" stroke-width="2"></path>
    <path d="M17 17L1 0.999999" stroke="black" stroke-width="2"></path>
  </symbol>
  <symbol xmlns="http://www.w3.org/2000/svg" viewBox="0 0 34 40" id="logo">
    <path fill-rule="evenodd" clip-rule="evenodd"
      d="M12.2617 16.9326H21.3362V23.1903C21.3362 25.6934 19.3005 27.7302 16.7989 27.7302C14.2973 27.7302 12.2617 25.6934 12.2617 23.1903V16.9326Z"
      fill="#FF7D4E"></path>
    <path fill-rule="evenodd" clip-rule="evenodd"
      d="M27.4686 16.9326V23.1903C27.4686 29.0799 22.6861 33.8651 16.8 33.8651C10.9139 33.8651 6.13139 29.0799 6.13139 23.1903V16.9326H0V23.1903C0 32.4664 7.52934 40.0001 16.8 40.0001C26.0707 40.0001 33.6 32.4664 33.6 23.1903V16.9326H27.4686Z"
      fill="#725CF0"></path>
    <path fill-rule="evenodd" clip-rule="evenodd"
      d="M16.8014 0C10.9153 0 6.13281 4.78528 6.13281 10.6748V16.9325H12.2642V10.6748C12.2642 8.17178 14.2998 6.13497 16.8014 6.13497C19.303 6.13497 21.3387 8.17178 21.3387 10.6748V16.9325H27.47V10.6748C27.47 4.78528 22.6876 0 16.8014 0Z"
      fill="#FDC672"></path>
  </symbol>
  <symbol xmlns="http://www.w3.org/2000/svg" viewBox="0 0 27 26" id="user">
    <path
      d="M22.1901 16.9003C20.7022 15.4275 18.9168 14.3544 16.972 13.739C19.0975 12.424 20.5109 10.0886 20.5109 7.43233C20.5109 3.33482 17.142 0 13.0026 0C8.86327 0 5.49438 3.33482 5.49438 7.43233C5.49438 10.0886 6.90782 12.424 9.03331 13.739C7.08318 14.3544 5.29777 15.4275 3.81524 16.9003C1.34968 19.3304 0 22.5652 0 26H1.91294C1.91294 19.9458 6.88657 15.0225 13.0026 15.0225C19.1187 15.0225 24.0924 19.9458 24.0924 26H26.0053C26 22.5652 24.6503 19.3304 22.1901 16.9003ZM7.402 7.43233C7.402 4.38155 9.91538 1.89359 13.0026 1.89359C16.0846 1.89359 18.598 4.38155 18.598 7.43233C18.598 10.4831 16.0846 12.9711 13.0026 12.9711C9.91538 12.9763 7.402 10.4884 7.402 7.43233Z"
    ></path>
  </symbol>
  <symbol xmlns="http://www.w3.org/2000/svg" viewBox="0 0 523 523" id="Ellipse 10">
    <circle cx="261.5" cy="261.5" r="261.5"></circle>
  </symbol>
  <symbol xmlns="http://www.w3.org/2000/svg" viewBox="0 0 22 23" id="instagram">
    <path
      d="M10.9956 1.98253C13.9333 1.98253 14.2782 1.99563 15.4393 2.04803C16.5131 2.09607 17.0937 2.27511 17.4821 2.42795C17.9972 2.62882 18.3639 2.86463 18.748 3.24891C19.1321 3.63319 19.3722 4 19.5687 4.51528C19.7171 4.90393 19.9004 5.48472 19.9484 6.55895C20.0008 7.72052 20.0139 8.0655 20.0139 11.0044C20.0139 13.9432 20.0008 14.2882 19.9484 15.4498C19.9004 16.524 19.7214 17.1048 19.5687 17.4935C19.3679 18.0087 19.1321 18.3755 18.748 18.7598C18.3639 19.1441 17.9972 19.3843 17.4821 19.5808C17.0937 19.7293 16.5131 19.9127 15.4393 19.9607C14.2782 20.0131 13.9333 20.0262 10.9956 20.0262C8.05794 20.0262 7.7131 20.0131 6.55198 19.9607C5.47818 19.9127 4.89762 19.7336 4.50913 19.5808C3.99405 19.3799 3.62738 19.1441 3.24325 18.7598C2.85913 18.3755 2.61905 18.0087 2.42262 17.4935C2.27421 17.1048 2.09087 16.524 2.04286 15.4498C1.99048 14.2882 1.97738 13.9432 1.97738 11.0044C1.97738 8.0655 1.99048 7.72052 2.04286 6.55895C2.09087 5.48472 2.26984 4.90393 2.42262 4.51528C2.62341 4 2.85913 3.63319 3.24325 3.24891C3.62738 2.86463 3.99405 2.62445 4.50913 2.42795C4.89762 2.27948 5.47818 2.09607 6.55198 2.04803C7.7131 1.99127 8.0623 1.98253 10.9956 1.98253ZM10.9956 0C8.00992 0 7.63452 0.0131004 6.46032 0.0655022C5.29048 0.117904 4.49167 0.305677 3.79325 0.576419C3.06865 0.855895 2.45754 1.23581 1.84643 1.84716C1.23532 2.45852 0.859921 3.07424 0.57619 3.79476C0.305556 4.49345 0.117857 5.29258 0.0654762 6.46725C0.0130952 7.63755 0 8.0131 0 11C0 13.9869 0.0130952 14.3624 0.0654762 15.5371C0.117857 16.7074 0.305556 17.5065 0.57619 18.2096C0.855556 18.9345 1.23532 19.5459 1.84643 20.1572C2.45754 20.7686 3.07302 21.1441 3.79325 21.4279C4.49167 21.6987 5.29048 21.8865 6.46468 21.9389C7.63889 21.9913 8.00992 22.0044 11 22.0044C13.9901 22.0044 14.3611 21.9913 15.5353 21.9389C16.7052 21.8865 17.504 21.6987 18.2067 21.4279C18.9314 21.1485 19.5425 20.7686 20.1536 20.1572C20.7647 19.5459 21.1401 18.9301 21.4238 18.2096C21.6944 17.5109 21.8821 16.7118 21.9345 15.5371C21.9869 14.3624 22 13.9913 22 11C22 8.00873 21.9869 7.63755 21.9345 6.46288C21.8821 5.29258 21.6944 4.49345 21.4238 3.79039C21.1444 3.0655 20.7647 2.45415 20.1536 1.84279C19.5425 1.23144 18.927 0.855895 18.2067 0.572052C17.5083 0.30131 16.7095 0.113537 15.5353 0.0611354C14.3567 0.0131004 13.9813 0 10.9956 0Z"
    ></path>
    <path
      d="M10.9961 5.35352C7.8794 5.35352 5.34766 7.8819 5.34766 11.0042C5.34766 14.1264 7.87503 16.6548 10.9961 16.6548C14.1171 16.6548 16.6445 14.1264 16.6445 11.0042C16.6445 7.8819 14.1171 5.35352 10.9961 5.35352ZM10.9961 14.6679C8.97067 14.6679 7.3294 13.026 7.3294 10.9998C7.3294 8.9736 8.97067 7.33168 10.9961 7.33168C13.0215 7.33168 14.6627 8.9736 14.6627 10.9998C14.6627 13.026 13.0215 14.6679 10.9961 14.6679Z"
    ></path>
    <path
      d="M16.8671 6.44517C17.5951 6.44517 18.1853 5.85474 18.1853 5.12639C18.1853 4.39805 17.5951 3.80762 16.8671 3.80762C16.139 3.80762 15.5488 4.39805 15.5488 5.12639C15.5488 5.85474 16.139 6.44517 16.8671 6.44517Z"></path>
  </symbol>
  <symbol xmlns="http://www.w3.org/2000/svg" viewBox="0 0 22 22" id="facebook">
    <path
      d="M19.0339 0H2.96607C1.32498 0 0 1.32538 0 2.96697V19.0398C0 20.6746 1.32498 22 2.96607 22H10.889L10.9025 14.1352H8.85784C8.59554 14.1352 8.38031 13.9199 8.37359 13.6575L8.36686 11.1211C8.36686 10.852 8.58208 10.6367 8.85112 10.6367H10.889V8.18777C10.889 5.34862 12.6243 3.80122 15.1599 3.80122H17.2382C17.5072 3.80122 17.7224 4.01651 17.7224 4.28563V6.42508C17.7224 6.69419 17.5072 6.90948 17.2382 6.90948H15.9603C14.5815 6.90948 14.3124 7.56208 14.3124 8.52416V10.6434H17.339C17.6282 10.6434 17.8502 10.8924 17.8166 11.1817L17.5139 13.718C17.487 13.9602 17.2785 14.1419 17.0364 14.1419H14.3192V22H19.0339C20.6683 22 22 20.6746 22 19.033V2.96697C21.9933 1.32538 20.6683 0 19.0339 0Z"></path>
  </symbol>
</svg>