<svg width="0" height="0" class="hidden">
  <symbol xmlns="http://www.w3.org/2000/svg" viewBox="0 0 11 19" id="back-arrow">
    <path fill-rule="evenodd" clip-rule="evenodd"
      d="M9.53624 18.8788L11 17.4339L2.92751 9.43942L11 1.44495L9.53624 0L0 9.43942L9.53624 18.8788Z"></path>
  </symbol>
  <symbol viewBox="0 0 0 0" id="Sprite">
    <symbol fill="none" xmlns="http://www.w3.org/2000/svg" viewBox="0 0 9 15" id="right-arrow">
      <path opacity="0.3" fill-rule="evenodd" clip-rule="evenodd"
        d="M1.46376 -1.61251e-06L2.13767e-06 1.45671L6.07249 7.5L1.2735e-07 13.5433L1.46376 15L9 7.5L1.46376 -1.61251e-06Z"></path>
    </symbol>
    <symbol fill="none" xmlns="http://www.w3.org/2000/svg" viewBox="0 0 22 26" id="basket">
      <path
        d="M21.9973 24.116V24.1008L20.5989 7.22617C20.5374 6.2207 19.6974 5.43359 18.6781 5.43359H16.8033C16.6292 2.40703 14.0937 0 10.9947 0C7.9009 0 5.36027 2.40703 5.19124 5.43359H3.3165C2.29717 5.43359 1.45713 6.2207 1.39566 7.22617L0.00241242 24.0906V24.116C-0.0231987 24.6035 0.156079 25.0859 0.494147 25.4414C0.832214 25.7969 1.3137 26 1.80544 26H20.1943C20.686 26 21.1624 25.7969 21.5056 25.4414C21.8385 25.0859 22.0229 24.6035 21.9973 24.116ZM10.9947 1.82812C13.0744 1.82812 14.7801 3.41758 14.9491 5.43359H7.04036C7.2094 3.41758 8.92022 1.82812 10.9947 1.82812ZM1.84642 24.1719L3.23966 7.36328V7.33789C3.23966 7.29727 3.27552 7.26172 3.32162 7.26172H18.6832C18.7242 7.26172 18.76 7.29219 18.7652 7.33789V7.35313L20.1482 24.1719H1.84642Z"
        fill="black"></path>
    </symbol>
    <symbol fill="none" xmlns="http://www.w3.org/2000/svg" viewBox="0 0 32 32" id="basket-alert">
      <circle cx="24.5" cy="7.5" r="4.5" fill="#FF7D4E"></circle>
      <path fill-rule="evenodd" clip-rule="evenodd"
        d="M18.1998 3.4293C17.5196 3.15261 16.775 3 15.9947 3C12.9009 3 10.3603 5.40703 10.1912 8.43359H8.3165C7.29717 8.43359 6.45713 9.2207 6.39566 10.2262L5.00241 27.0906V27.116C4.9768 27.6035 5.15608 28.0859 5.49415 28.4414C5.83221 28.7969 6.3137 29 6.80544 29H25.1943C25.686 29 26.1624 28.7969 26.5056 28.4414C26.8385 28.0859 27.0229 27.6035 26.9973 27.116V27.1008L25.9824 14.8535C25.5032 14.9496 25.0075 15 24.5 15C24.3815 15 24.2637 14.9973 24.1466 14.9918L25.1482 27.1719H6.84642L8.23966 10.3633V10.3379C8.23966 10.2973 8.27552 10.2617 8.32162 10.2617H17.5248C17.2959 9.68409 17.1367 9.07126 17.0575 8.43359H12.0404C12.2094 6.41758 13.9202 4.82812 15.9947 4.82812C16.4889 4.82812 16.962 4.91789 17.3984 5.08181C17.5982 4.49488 17.8687 3.94066 18.1998 3.4293Z"
        fill="black"></path>
    </symbol>
    <symbol fill="none" xmlns="http://www.w3.org/2000/svg" viewBox="0 0 18 18" id="Close">
      <path d="M1 17L17 0.999998" stroke="black" stroke-width="2"></path>
      <path d="M17 17L1 0.999999" stroke="black" stroke-width="2"></path>
    </symbol>
    <symbol fill="none" xmlns="http://www.w3.org/2000/svg" viewBox="0 0 34 40" id="logo">
      <path fill-rule="evenodd" clip-rule="evenodd"
        d="M12.2617 16.9326H21.3362V23.1903C21.3362 25.6934 19.3005 27.7302 16.7989 27.7302C14.2973 27.7302 12.2617 25.6934 12.2617 23.1903V16.9326Z"
        fill="#FF7D4E"></path>
      <path fill-rule="evenodd" clip-rule="evenodd"
        d="M27.4686 16.9326V23.1903C27.4686 29.0799 22.6861 33.8651 16.8 33.8651C10.9139 33.8651 6.13139 29.0799 6.13139 23.1903V16.9326H0V23.1903C0 32.4664 7.52934 40.0001 16.8 40.0001C26.0707 40.0001 33.6 32.4664 33.6 23.1903V16.9326H27.4686Z"
        fill="#725CF0"></path>
      <path fill-rule="evenodd" clip-rule="evenodd"
        d="M16.8014 0C10.9153 0 6.13281 4.78528 6.13281 10.6748V16.9325H12.2642V10.6748C12.2642 8.17178 14.2998 6.13497 16.8014 6.13497C19.303 6.13497 21.3387 8.17178 21.3387 10.6748V16.9325H27.47V10.6748C27.47 4.78528 22.6876 0 16.8014 0Z"
        fill="#FDC672"></path>
    </symbol>
    <symbol fill="none" xmlns="http://www.w3.org/2000/svg" viewBox="0 0 27 26" id="user">
      <path
        d="M22.1901 16.9003C20.7022 15.4275 18.9168 14.3544 16.972 13.739C19.0975 12.424 20.5109 10.0886 20.5109 7.43233C20.5109 3.33482 17.142 0 13.0026 0C8.86327 0 5.49438 3.33482 5.49438 7.43233C5.49438 10.0886 6.90782 12.424 9.03331 13.739C7.08318 14.3544 5.29777 15.4275 3.81524 16.9003C1.34968 19.3304 0 22.5652 0 26H1.91294C1.91294 19.9458 6.88657 15.0225 13.0026 15.0225C19.1187 15.0225 24.0924 19.9458 24.0924 26H26.0053C26 22.5652 24.6503 19.3304 22.1901 16.9003ZM7.402 7.43233C7.402 4.38155 9.91538 1.89359 13.0026 1.89359C16.0846 1.89359 18.598 4.38155 18.598 7.43233C18.598 10.4831 16.0846 12.9711 13.0026 12.9711C9.91538 12.9763 7.402 10.4884 7.402 7.43233Z"
        fill="black"></path>
    </symbol>
  </symbol>
</svg>