<svg width="0" height="0" class="hidden">
  <symbol xmlns="http://www.w3.org/2000/svg" viewBox="0 0 11 19" id="back-arrow">
    <path fill-rule="evenodd" clip-rule="evenodd"
      d="M9.53624 18.8788L11 17.4339L2.92751 9.43942L11 1.44495L9.53624 0L0 9.43942L9.53624 18.8788Z"></path>
  </symbol>
  <symbol xmlns="http://www.w3.org/2000/svg" viewBox="0 0 9 15" id="right-arrow">
    <path fill-rule="evenodd" clip-rule="evenodd"
      d="M1.46376 -1.61251e-06L2.13767e-06 1.45671L6.07249 7.5L1.2735e-07 13.5433L1.46376 15L9 7.5L1.46376 -1.61251e-06Z"></path>
  </symbol>
  <symbol xmlns="http://www.w3.org/2000/svg" viewBox="0 0 22 26" id="basket">
    <path
      d="M21.9973 24.116V24.1008L20.5989 7.22617C20.5374 6.2207 19.6974 5.43359 18.6781 5.43359H16.8033C16.6292 2.40703 14.0937 0 10.9947 0C7.9009 0 5.36027 2.40703 5.19124 5.43359H3.3165C2.29717 5.43359 1.45713 6.2207 1.39566 7.22617L0.00241242 24.0906V24.116C-0.0231987 24.6035 0.156079 25.0859 0.494147 25.4414C0.832214 25.7969 1.3137 26 1.80544 26H20.1943C20.686 26 21.1624 25.7969 21.5056 25.4414C21.8385 25.0859 22.0229 24.6035 21.9973 24.116ZM10.9947 1.82812C13.0744 1.82812 14.7801 3.41758 14.9491 5.43359H7.04036C7.2094 3.41758 8.92022 1.82812 10.9947 1.82812ZM1.84642 24.1719L3.23966 7.36328V7.33789C3.23966 7.29727 3.27552 7.26172 3.32162 7.26172H18.6832C18.7242 7.26172 18.76 7.29219 18.7652 7.33789V7.35313L20.1482 24.1719H1.84642Z"
    ></path>
  </symbol>
  <symbol xmlns="http://www.w3.org/2000/svg" viewBox="0 0 32 32" id="basket-alert">
    <circle cx="24.5" cy="7.5" r="4.5" fill="#FF7D4E"></circle>
    <path fill-rule="evenodd" clip-rule="evenodd"
      d="M18.1998 3.4293C17.5196 3.15261 16.775 3 15.9947 3C12.9009 3 10.3603 5.40703 10.1912 8.43359H8.3165C7.29717 8.43359 6.45713 9.2207 6.39566 10.2262L5.00241 27.0906V27.116C4.9768 27.6035 5.15608 28.0859 5.49415 28.4414C5.83221 28.7969 6.3137 29 6.80544 29H25.1943C25.686 29 26.1624 28.7969 26.5056 28.4414C26.8385 28.0859 27.0229 27.6035 26.9973 27.116V27.1008L25.9824 14.8535C25.5032 14.9496 25.0075 15 24.5 15C24.3815 15 24.2637 14.9973 24.1466 14.9918L25.1482 27.1719H6.84642L8.23966 10.3633V10.3379C8.23966 10.2973 8.27552 10.2617 8.32162 10.2617H17.5248C17.2959 9.68409 17.1367 9.07126 17.0575 8.43359H12.0404C12.2094 6.41758 13.9202 4.82812 15.9947 4.82812C16.4889 4.82812 16.962 4.91789 17.3984 5.08181C17.5982 4.49488 17.8687 3.94066 18.1998 3.4293Z"
    ></path>
  </symbol>
  <symbol xmlns="http://www.w3.org/2000/svg" viewBox="0 0 18 18" id="Close">
    <path d="M1 17L17 0.999998" stroke="black" stroke-width="2"></path>
    <path d="M17 17L1 0.999999" stroke="black" stroke-width="2"></path>
  </symbol>
  <symbol xmlns="http://www.w3.org/2000/svg" viewBox="0 0 34 40" id="logo">
    <path fill-rule="evenodd" clip-rule="evenodd"
      d="M12.2617 16.9326H21.3362V23.1903C21.3362 25.6934 19.3005 27.7302 16.7989 27.7302C14.2973 27.7302 12.2617 25.6934 12.2617 23.1903V16.9326Z"
      fill="#FF7D4E"></path>
    <path fill-rule="evenodd" clip-rule="evenodd"
      d="M27.4686 16.9326V23.1903C27.4686 29.0799 22.6861 33.8651 16.8 33.8651C10.9139 33.8651 6.13139 29.0799 6.13139 23.1903V16.9326H0V23.1903C0 32.4664 7.52934 40.0001 16.8 40.0001C26.0707 40.0001 33.6 32.4664 33.6 23.1903V16.9326H27.4686Z"
      fill="#725CF0"></path>
    <path fill-rule="evenodd" clip-rule="evenodd"
      d="M16.8014 0C10.9153 0 6.13281 4.78528 6.13281 10.6748V16.9325H12.2642V10.6748C12.2642 8.17178 14.2998 6.13497 16.8014 6.13497C19.303 6.13497 21.3387 8.17178 21.3387 10.6748V16.9325H27.47V10.6748C27.47 4.78528 22.6876 0 16.8014 0Z"
      fill="#FDC672"></path>
  </symbol>
  <symbol xmlns="http://www.w3.org/2000/svg" viewBox="0 0 27 26" id="user">
    <path
      d="M22.1901 16.9003C20.7022 15.4275 18.9168 14.3544 16.972 13.739C19.0975 12.424 20.5109 10.0886 20.5109 7.43233C20.5109 3.33482 17.142 0 13.0026 0C8.86327 0 5.49438 3.33482 5.49438 7.43233C5.49438 10.0886 6.90782 12.424 9.03331 13.739C7.08318 14.3544 5.29777 15.4275 3.81524 16.9003C1.34968 19.3304 0 22.5652 0 26H1.91294C1.91294 19.9458 6.88657 15.0225 13.0026 15.0225C19.1187 15.0225 24.0924 19.9458 24.0924 26H26.0053C26 22.5652 24.6503 19.3304 22.1901 16.9003ZM7.402 7.43233C7.402 4.38155 9.91538 1.89359 13.0026 1.89359C16.0846 1.89359 18.598 4.38155 18.598 7.43233C18.598 10.4831 16.0846 12.9711 13.0026 12.9711C9.91538 12.9763 7.402 10.4884 7.402 7.43233Z"
    ></path>
  </symbol>
  <symbol xmlns="http://www.w3.org/2000/svg" viewBox="0 0 523 523" id="Ellipse 10">
    <circle cx="261.5" cy="261.5" r="261.5"></circle>
  </symbol>
  <symbol fill="red" xmlns="http://www.w3.org/2000/svg" viewBox="0 0 22 23" id="instagram">
    <path
      d="M10.9956 1.98253C13.9333 1.98253 14.2782 1.99563 15.4393 2.04803C16.5131 2.09607 17.0937 2.27511 17.4821 2.42795C17.9972 2.62882 18.3639 2.86463 18.748 3.24891C19.1321 3.63319 19.3722 4 19.5687 4.51528C19.7171 4.90393 19.9004 5.48472 19.9484 6.55895C20.0008 7.72052 20.0139 8.0655 20.0139 11.0044C20.0139 13.9432 20.0008 14.2882 19.9484 15.4498C19.9004 16.524 19.7214 17.1048 19.5687 17.4935C19.3679 18.0087 19.1321 18.3755 18.748 18.7598C18.3639 19.1441 17.9972 19.3843 17.4821 19.5808C17.0937 19.7293 16.5131 19.9127 15.4393 19.9607C14.2782 20.0131 13.9333 20.0262 10.9956 20.0262C8.05794 20.0262 7.7131 20.0131 6.55198 19.9607C5.47818 19.9127 4.89762 19.7336 4.50913 19.5808C3.99405 19.3799 3.62738 19.1441 3.24325 18.7598C2.85913 18.3755 2.61905 18.0087 2.42262 17.4935C2.27421 17.1048 2.09087 16.524 2.04286 15.4498C1.99048 14.2882 1.97738 13.9432 1.97738 11.0044C1.97738 8.0655 1.99048 7.72052 2.04286 6.55895C2.09087 5.48472 2.26984 4.90393 2.42262 4.51528C2.62341 4 2.85913 3.63319 3.24325 3.24891C3.62738 2.86463 3.99405 2.62445 4.50913 2.42795C4.89762 2.27948 5.47818 2.09607 6.55198 2.04803C7.7131 1.99127 8.0623 1.98253 10.9956 1.98253ZM10.9956 0C8.00992 0 7.63452 0.0131004 6.46032 0.0655022C5.29048 0.117904 4.49167 0.305677 3.79325 0.576419C3.06865 0.855895 2.45754 1.23581 1.84643 1.84716C1.23532 2.45852 0.859921 3.07424 0.57619 3.79476C0.305556 4.49345 0.117857 5.29258 0.0654762 6.46725C0.0130952 7.63755 0 8.0131 0 11C0 13.9869 0.0130952 14.3624 0.0654762 15.5371C0.117857 16.7074 0.305556 17.5065 0.57619 18.2096C0.855556 18.9345 1.23532 19.5459 1.84643 20.1572C2.45754 20.7686 3.07302 21.1441 3.79325 21.4279C4.49167 21.6987 5.29048 21.8865 6.46468 21.9389C7.63889 21.9913 8.00992 22.0044 11 22.0044C13.9901 22.0044 14.3611 21.9913 15.5353 21.9389C16.7052 21.8865 17.504 21.6987 18.2067 21.4279C18.9314 21.1485 19.5425 20.7686 20.1536 20.1572C20.7647 19.5459 21.1401 18.9301 21.4238 18.2096C21.6944 17.5109 21.8821 16.7118 21.9345 15.5371C21.9869 14.3624 22 13.9913 22 11C22 8.00873 21.9869 7.63755 21.9345 6.46288C21.8821 5.29258 21.6944 4.49345 21.4238 3.79039C21.1444 3.0655 20.7647 2.45415 20.1536 1.84279C19.5425 1.23144 18.927 0.855895 18.2067 0.572052C17.5083 0.30131 16.7095 0.113537 15.5353 0.0611354C14.3567 0.0131004 13.9813 0 10.9956 0Z"
      fill="red"></path>
    <path
      d="M10.9961 5.35352C7.8794 5.35352 5.34766 7.8819 5.34766 11.0042C5.34766 14.1264 7.87503 16.6548 10.9961 16.6548C14.1171 16.6548 16.6445 14.1264 16.6445 11.0042C16.6445 7.8819 14.1171 5.35352 10.9961 5.35352ZM10.9961 14.6679C8.97067 14.6679 7.3294 13.026 7.3294 10.9998C7.3294 8.9736 8.97067 7.33168 10.9961 7.33168C13.0215 7.33168 14.6627 8.9736 14.6627 10.9998C14.6627 13.026 13.0215 14.6679 10.9961 14.6679Z"
    ></path>
    <path
      d="M16.8671 6.44517C17.5951 6.44517 18.1853 5.85474 18.1853 5.12639C18.1853 4.39805 17.5951 3.80762 16.8671 3.80762C16.139 3.80762 15.5488 4.39805 15.5488 5.12639C15.5488 5.85474 16.139 6.44517 16.8671 6.44517Z"></path>
  </symbol>
  <symbol xmlns="http://www.w3.org/2000/svg" viewBox="0 0 22 22" id="facebook">
    <path
      d="M19.0339 0H2.96607C1.32498 0 0 1.32538 0 2.96697V19.0398C0 20.6746 1.32498 22 2.96607 22H10.889L10.9025 14.1352H8.85784C8.59554 14.1352 8.38031 13.9199 8.37359 13.6575L8.36686 11.1211C8.36686 10.852 8.58208 10.6367 8.85112 10.6367H10.889V8.18777C10.889 5.34862 12.6243 3.80122 15.1599 3.80122H17.2382C17.5072 3.80122 17.7224 4.01651 17.7224 4.28563V6.42508C17.7224 6.69419 17.5072 6.90948 17.2382 6.90948H15.9603C14.5815 6.90948 14.3124 7.56208 14.3124 8.52416V10.6434H17.339C17.6282 10.6434 17.8502 10.8924 17.8166 11.1817L17.5139 13.718C17.487 13.9602 17.2785 14.1419 17.0364 14.1419H14.3192V22H19.0339C20.6683 22 22 20.6746 22 19.033V2.96697C21.9933 1.32538 20.6683 0 19.0339 0Z"
      fill="currentColor"></path>
  </symbol>
  <symbol fill="none" xmlns="http://www.w3.org/2000/svg" viewBox="0 0 32 32" id="facebook_log">
    <mask id="mask0_721_3390" maskUnits="userSpaceOnUse" x="4" y="4" width="24" height="24">
      <path fill-rule="evenodd" clip-rule="evenodd" d="M4 4.00098H27.9986V27.8543H4V4.00098Z"
        fill="white"></path>
    </mask>
    <g mask="url(#mask0_721_3390)">
      <path fill-rule="evenodd" clip-rule="evenodd"
        d="M28 16C28 9.37258 22.6274 4 16 4C9.37258 4 4 9.37258 4 16C4 21.9895 8.38823 26.954 14.125 27.8542V19.4688H11.0781V16H14.125V13.3562C14.125 10.3488 15.9165 8.6875 18.6576 8.6875C19.9705 8.6875 21.3438 8.92188 21.3438 8.92188V11.875H19.8306C18.3399 11.875 17.875 12.8 17.875 13.749V16H21.2031L20.6711 19.4688H17.875V27.8542C23.6118 26.954 28 21.9895 28 16Z"
        fill="#1778F2"></path>
    </g>
  </symbol>
  <symbol fill="none" xmlns="http://www.w3.org/2000/svg" viewBox="0 0 32 32" id="apple">
    <path fill-rule="evenodd" clip-rule="evenodd"
      d="M19.7007 5.8384C20.5654 4.8011 20.9993 3.68041 20.9993 2.48013V2.48012C20.9993 2.32092 20.9919 2.16045 20.9743 2C20.372 2.03158 19.7315 2.21605 19.0544 2.54961C18.3758 2.88822 17.8162 3.3127 17.3762 3.8232C16.4949 4.83147 15.9987 6.06462 15.9987 7.21688C15.9987 7.37613 16.0088 7.52768 16.0262 7.67168C17.395 7.78412 18.6572 7.07155 19.7007 5.8384ZM24.3043 23.0232C24.7967 22.3136 25.2218 21.5418 25.5808 20.7033C25.7289 20.3478 25.8681 19.9774 26 19.5907C25.3918 19.333 24.8451 18.97 24.3556 18.5004C23.2754 17.4886 22.7258 16.2143 22.7097 14.6829C22.6921 12.7169 23.5758 11.1843 25.3624 10.0901C24.3644 8.65611 22.8636 7.86013 20.8659 7.69717C20.1287 7.63392 19.2288 7.7945 18.1625 8.18234C17.035 8.60055 16.3699 8.81033 16.1737 8.81033C15.9112 8.81033 15.3125 8.63092 14.38 8.27716C13.445 7.92457 12.6925 7.74517 12.1187 7.74517C11.0701 7.7628 10.0963 8.03835 9.19508 8.57907C8.29386 9.1198 7.57379 9.85637 7.03254 10.7901C6.34384 11.9526 6 13.3398 6 14.9482C6 16.3523 6.25502 17.8026 6.76374 19.3004C7.23875 20.687 7.84508 21.9033 8.58259 22.9521C9.26997 23.9343 9.84376 24.6276 10.3025 25.0321C11.0213 25.7076 11.7413 26.0291 12.4637 25.998C12.9387 25.9817 13.56 25.8172 14.3312 25.5017C15.1013 25.1876 15.8212 25.0321 16.4925 25.0321C17.1325 25.0321 17.8325 25.1876 18.5942 25.5017C19.3534 25.8172 20.0056 25.9728 20.5464 25.9728C21.2997 25.955 22.0032 25.6424 22.6598 25.0321C23.0834 24.6602 23.633 23.9906 24.3043 23.0232Z"
      fill="#0E0410"></path>
  </symbol>
  <symbol fill="none" xmlns="http://www.w3.org/2000/svg" viewBox="0 0 32 32" id="google">
    <mask id="mask0_721_3363" maskUnits="userSpaceOnUse" x="5" y="5" width="22" height="22">
      <path fill-rule="evenodd" clip-rule="evenodd" d="M5 5.00098H26.9987V26.8665H5V5.00098Z"
        fill="white"></path>
    </mask>
    <g mask="url(#mask0_721_3363)">
      <path fill-rule="evenodd" clip-rule="evenodd"
        d="M26.2628 16.2432C26.2628 15.4848 26.1947 14.7557 26.0683 14.0557H15.9961V18.1925H21.7516C21.5037 19.5293 20.7503 20.6619 19.6176 21.4202V24.1036H23.0739C25.0961 22.2418 26.2628 19.5001 26.2628 16.2432Z"
        fill="#4385F6"></path>
      <path fill-rule="evenodd" clip-rule="evenodd"
        d="M15.9984 26.6947C18.8859 26.6947 21.3067 25.7371 23.0761 24.1038L19.6199 21.4204C18.6622 22.0621 17.4372 22.4413 15.9984 22.4413C13.2129 22.4413 10.8553 20.56 10.0143 18.0322H6.44141V20.8031C8.20113 24.2982 11.8178 26.6947 15.9984 26.6947Z"
        fill="#34A855"></path>
      <path fill-rule="evenodd" clip-rule="evenodd"
        d="M10.0151 18.0325C9.80122 17.3908 9.67969 16.7054 9.67969 16.0005C9.67969 15.2957 9.80122 14.6103 10.0151 13.9686V11.1978H6.44219C5.71788 12.6415 5.30469 14.2748 5.30469 16.0005C5.30469 17.7262 5.71788 19.3596 6.44219 20.8033L10.0151 18.0325Z"
        fill="#FBBD06"></path>
      <path fill-rule="evenodd" clip-rule="evenodd"
        d="M15.9984 9.55914C17.5685 9.55914 18.9782 10.0987 20.0865 11.1584L23.1539 8.09108C21.3018 6.36539 18.881 5.30566 15.9984 5.30566C11.8178 5.30566 8.20113 7.70219 6.44141 11.1973L10.0143 13.9682C10.8553 11.4404 13.2129 9.55914 15.9984 9.55914Z"
        fill="#EA4235"></path>
    </g>
  </symbol>
  <symbol fill="none" xmlns="http://www.w3.org/2000/svg" viewBox="0 0 490 202" id="404">
    <path fill-rule="evenodd" clip-rule="evenodd"
      d="M244.999 2C243.267 2 241.554 2.08446 239.865 2.24942L239.671 0.258896C241.424 0.0876294 243.202 0 244.999 0C246.797 0 248.574 0.0876292 250.328 0.258895L250.133 2.24942C248.444 2.08446 246.732 2 244.999 2ZM269.675 8.18632C266.678 6.5779 263.508 5.25315 260.199 4.24794L260.781 2.33432C264.217 3.37831 267.51 4.75407 270.621 6.42409L269.675 8.18632ZM229.799 4.24794C226.491 5.25315 223.32 6.5779 220.323 8.18632L219.377 6.42408C222.489 4.75407 225.782 3.37832 229.218 2.33432L229.799 4.24794ZM211.798 13.9023C209.15 16.0808 206.719 18.514 204.542 21.1643L202.997 19.895C205.256 17.1443 207.779 14.6188 210.527 12.3578L211.798 13.9023ZM285.456 21.1643C283.28 18.514 280.849 16.0808 278.201 13.9023L279.471 12.3578C282.22 14.6188 284.743 17.1443 287.002 19.895L285.456 21.1643ZM198.833 29.6943C197.227 32.6921 195.904 35.8636 194.9 39.173L192.987 38.5926C194.029 35.1557 195.403 31.8623 197.07 28.7498L198.833 29.6943ZM295.098 39.173C294.094 35.8637 292.772 32.6921 291.166 29.6943L292.928 28.7498C294.596 31.8623 295.97 35.1557 297.012 38.5926L295.098 39.173ZM244.999 32.6749C243.551 32.6749 242.135 32.8177 240.767 33.0897L240.377 31.1281C241.873 30.8307 243.419 30.6748 244.999 30.6748C246.58 30.6748 248.125 30.8307 249.622 31.1281L249.232 33.0897C247.863 32.8177 246.448 32.6749 244.999 32.6749ZM263.028 42.3273C261.443 39.9619 259.407 37.9237 257.043 36.3379L258.158 34.6771C260.738 36.4081 262.96 38.6325 264.689 41.2144L263.028 42.3273ZM232.955 36.3379C230.592 37.9237 228.555 39.9619 226.971 42.3273L225.309 41.2144C227.039 38.6325 229.261 36.4081 231.841 34.6771L232.955 36.3379ZM192.905 49.2401C192.741 50.9291 192.656 52.6418 192.656 54.3742L192.656 58.2853L190.656 58.2853L190.656 54.3742C190.656 52.5769 190.744 50.7994 190.915 49.046L192.905 49.2401ZM297.342 54.3742C297.342 52.6418 297.258 50.9291 297.093 49.2401L299.084 49.046C299.255 50.7994 299.342 52.5769 299.342 54.3742V58.2853H297.342V54.3742ZM223.727 50.1414C223.456 51.5102 223.313 52.9254 223.313 54.3742V58.2852H221.313V54.3742C221.313 52.7939 221.469 51.2483 221.766 49.7522L223.727 50.1414ZM266.685 54.3742C266.685 52.9254 266.543 51.5102 266.271 50.1414L268.233 49.7522C268.53 51.2483 268.685 52.7939 268.685 54.3742V58.2853H266.685V54.3742ZM223.313 66.1072V73.9292H221.313V66.1072H223.313ZM192.657 66.1073L192.657 73.9294L190.657 73.9295L190.657 66.1074L192.657 66.1073ZM266.685 73.9295V66.1074H268.685V73.9295H266.685ZM297.342 73.9295V66.1074H299.342V73.9295H297.342ZM221.313 86.6621L221.313 89.5731L223.313 89.5732L223.313 86.6621L227.985 86.6622L227.985 84.6622L223.313 84.6621V81.7511H221.313V84.6621L218.481 84.6622L218.481 86.6622L221.313 86.6621ZM192.657 86.6626L195.489 86.6625L195.489 84.6625L192.657 84.6626L192.657 81.7515L190.657 81.7516L190.657 84.6626L187.825 84.6625L187.825 86.6625L190.657 86.6626V89.5736H192.657V86.6626ZM266.685 84.6626V81.7515H268.685V84.6626H271.518V86.6626H268.685L268.685 89.5736L266.685 89.5735L266.685 86.6626L262.014 86.6625V84.6625L266.685 84.6626ZM297.342 84.6626V81.7515H299.342V84.6626L302.175 84.6625L302.175 86.6625L299.342 86.6626L299.342 89.5735L297.342 89.5736L297.342 86.6626H294.51V84.6626H297.342ZM160 84.6621L161 84.6621L164.832 84.6622L164.832 86.6622L162 86.6621V89.5732H160V85.6621V84.6621ZM330 84.6621V85.6621V89.5732H328V86.6621L325.168 86.6622L325.168 84.6622L329 84.6621L330 84.6621ZM172.496 84.6623L180.161 84.6624L180.161 86.6624L172.496 86.6623L172.496 84.6623ZM210.817 86.6623L203.153 86.6624L203.153 84.6624L210.817 84.6623L210.817 86.6623ZM250.671 86.6624L239.328 86.6623L239.328 84.6623L250.671 84.6624L250.671 86.6624ZM309.839 84.6624L317.503 84.6623L317.503 86.6623L309.839 86.6624V84.6624ZM286.846 86.6626H279.182V84.6626H286.846V86.6626ZM221.313 105.217L221.313 97.3952L223.313 97.3953L223.313 105.217L221.313 105.217ZM160 105.217V97.3952H162V105.217H160ZM330 97.3952V105.217H328V97.3952H330ZM268.685 97.3956L268.685 105.218L266.685 105.217L266.685 97.3955L268.685 97.3956ZM299.343 97.3955L299.343 105.217L297.343 105.218L297.343 97.3956L299.343 97.3955ZM190.657 105.217V97.3955H192.657V105.217H190.657ZM221.312 116.95L221.313 113.039L223.313 113.039L223.312 116.95C223.312 118.399 223.455 119.815 223.727 121.183L221.765 121.573C221.468 120.076 221.312 118.531 221.312 116.95ZM160 116.95V113.039H162V116.95C162 118.514 162.043 120.067 162.129 121.608L160.132 121.719C160.044 120.14 160 118.551 160 116.95ZM330 113.039V116.95C330 118.551 329.956 120.14 329.868 121.719L327.871 121.608C327.957 120.067 328 118.514 328 116.95V113.039H330ZM268.685 113.039L268.685 116.95C268.685 118.531 268.529 120.076 268.232 121.572L266.271 121.183C266.542 119.815 266.685 118.399 266.685 116.95L266.685 113.039L268.685 113.039ZM299.343 113.039L299.343 116.95C299.343 118.748 299.256 120.525 299.085 122.279L297.094 122.085C297.259 120.396 297.343 118.683 297.343 116.95L297.343 113.039L299.343 113.039ZM190.657 116.95V113.039H192.657V116.95C192.657 118.683 192.741 120.396 192.906 122.085L190.915 122.279C190.744 120.525 190.657 118.748 190.657 116.95ZM231.84 136.648C229.26 134.917 227.038 132.692 225.309 130.11L226.97 128.997C228.555 131.363 230.591 133.401 232.955 134.987L231.84 136.648ZM264.689 130.11C262.959 132.692 260.737 134.917 258.157 136.648L257.043 134.987C259.406 133.401 261.443 131.363 263.027 128.997L264.689 130.11ZM163.306 140.494C162.433 137.461 161.724 134.358 161.19 131.197L163.162 130.863C163.684 133.95 164.376 136.979 165.228 139.941L163.306 140.494ZM328.81 131.197C328.276 134.358 327.567 137.461 326.694 140.494L324.772 139.941C325.624 136.979 326.316 133.95 326.838 130.863L328.81 131.197ZM197.071 142.575C195.403 139.462 194.03 136.169 192.987 132.732L194.901 132.152C195.905 135.461 197.228 138.633 198.834 141.63L197.071 142.575ZM297.013 132.732C295.97 136.169 294.597 139.462 292.929 142.575L291.166 141.63C292.772 138.633 294.095 135.461 295.099 132.152L297.013 132.732ZM244.999 140.65C243.418 140.65 241.872 140.494 240.376 140.197L240.766 138.235C242.135 138.507 243.55 138.65 244.999 138.65C246.447 138.65 247.862 138.507 249.231 138.235L249.621 140.197C248.125 140.494 246.579 140.65 244.999 140.65ZM170.6 158.079C169.065 155.308 167.68 152.442 166.456 149.492L168.304 148.726C169.498 151.606 170.85 154.404 172.349 157.11L170.6 158.079ZM323.544 149.492C322.32 152.442 320.935 155.308 319.4 158.079L317.651 157.11C319.15 154.404 320.502 151.606 321.696 148.726L323.544 149.492ZM287.003 151.43C284.744 154.18 282.22 156.706 279.472 158.967L278.201 157.422C280.849 155.244 283.281 152.811 285.457 150.16L287.003 151.43ZM210.528 158.967C207.78 156.706 205.256 154.18 202.997 151.43L204.543 150.16C206.719 152.811 209.151 155.244 211.799 157.422L210.528 158.967ZM270.622 164.901C267.51 166.571 264.218 167.946 260.781 168.99L260.2 167.077C263.509 166.072 266.679 164.747 269.676 163.138L270.622 164.901ZM229.219 168.99C225.782 167.946 222.49 166.571 219.378 164.901L220.324 163.138C223.321 164.747 226.492 166.072 229.8 167.077L229.219 168.99ZM181.626 173.6C179.51 171.231 177.524 168.744 175.679 166.148L177.31 164.99C179.111 167.525 181.05 169.954 183.117 172.267L181.626 173.6ZM314.321 166.148C312.476 168.744 310.49 171.231 308.374 173.6L306.883 172.267C308.95 169.954 310.889 167.525 312.69 164.99L314.321 166.148ZM245 171.325C243.203 171.325 241.425 171.237 239.672 171.066L239.866 169.075C241.555 169.24 243.268 169.325 245 169.325C246.732 169.325 248.445 169.24 250.134 169.075L250.328 171.066C248.575 171.237 246.797 171.325 245 171.325ZM195.811 186.297C193.217 184.451 190.731 182.463 188.365 180.344L189.699 178.854C192.01 180.923 194.438 182.865 196.971 184.668L195.811 186.297ZM301.635 180.344C299.269 182.463 296.783 184.451 294.189 186.297L293.029 184.668C295.562 182.865 297.99 180.923 300.301 178.854L301.635 180.344ZM212.461 195.533C209.512 194.307 206.647 192.92 203.876 191.383L204.846 189.634C207.552 191.135 210.349 192.489 213.228 193.686L212.461 195.533ZM286.124 191.383C283.353 192.92 280.488 194.307 277.539 195.533L276.772 193.686C279.651 192.489 282.448 191.135 285.154 189.634L286.124 191.383ZM230.754 200.807C227.592 200.272 224.49 199.562 221.457 198.688L222.011 196.766C224.972 197.62 228.001 198.313 231.087 198.835L230.754 200.807ZM268.543 198.688C265.51 199.562 262.407 200.272 259.246 200.807L258.913 198.835C261.999 198.313 265.028 197.62 267.989 196.766L268.543 198.688ZM245 202C243.4 202 241.81 201.955 240.231 201.868L240.342 199.871C241.884 199.956 243.437 200 245 200C246.563 200 248.116 199.956 249.658 199.871L249.769 201.868C248.19 201.955 246.6 202 245 202ZM84.5287 4H85.0611H89.5699V6H85.5936L83.2639 9.46295L81.6045 8.34657L84.2314 4.44181L84.5287 4ZM98.5873 4H107.605V6H98.5873V4ZM116.622 4H121.131H122.131V5V10.1937H120.131V6H116.622V4ZM71.0969 23.9656L76.3507 16.1561L78.0101 17.2725L72.7563 25.082L71.0969 23.9656ZM122.131 20.581V30.9683H120.131V20.581H122.131ZM60.5892 39.5847L65.843 31.7752L67.5025 32.8915L62.2487 40.701L60.5892 39.5847ZM122.131 41.3556V51.7429H120.131V41.3556H122.131ZM50.0816 55.2037L55.3354 47.3942L56.9948 48.5106L51.741 56.3201L50.0816 55.2037ZM87.5895 52.3618V55.5905V60.219H85.5895V58.8191L84.2431 60.7843L82.5932 59.6538L85.7646 55.0252L87.5895 52.3618ZM122.131 62.1302V72.5175H120.131V62.1302H122.131ZM39.5739 70.8228L44.8278 63.0132L46.4872 64.1296L41.2334 71.9391L39.5739 70.8228ZM77.9003 70.0414L71.5575 79.2986L69.9076 78.1681L76.2504 68.911L77.9003 70.0414ZM85.5895 78.7333V69.4762H87.5895V78.7333H85.5895ZM29.0663 86.4418L34.3201 78.6323L35.9796 79.7487L30.7257 87.5582L29.0663 86.4418ZM122.131 82.9048V93.2921H120.131V82.9048H122.131ZM65.2147 88.5557L58.8719 97.8129L57.222 96.6824L63.5648 87.4252L65.2147 88.5557ZM85.5895 97.2476V87.9905H87.5895V97.2476H85.5895ZM18.5587 102.061L23.8125 94.2513L25.4719 95.3677L20.2181 103.177L18.5587 102.061ZM122.131 103.679V114.067H120.131V103.679H122.131ZM52.5291 107.07L46.1863 116.327L44.5364 115.197L50.8792 105.94L52.5291 107.07ZM85.5895 115.762V106.505H87.5895V115.762H85.5895ZM8.05102 117.68L13.3048 109.87L14.9643 110.987L9.71045 118.796L8.05102 117.68ZM37.7446 128.648L39.8435 125.584L38.1936 124.454L35.0222 129.082L33.9498 130.648H35.8472H40.0757V128.648H37.7446ZM122.131 128.648V124.454H120.131V129.648V130.648H121.131H126.098V128.648H122.131ZM85.5895 128.648V125.019H87.5895V129.648V130.648H86.5895H82.361V128.648H85.5895ZM0.170285 129.394L2.79721 125.489L4.45664 126.606L2 130.257V133.724H0V129.952V129.647L0.170285 129.394ZM48.5328 128.648H56.9898V130.648H48.5328V128.648ZM65.4469 128.648H73.9039V130.648H65.4469V128.648ZM136.033 128.648H141H142V129.648V133.457H140V130.648H136.033V128.648ZM142 141.076V148.695H140V141.076H142ZM0 148.81V141.267H2V148.81H0ZM142 156.314V160.124V161.124H141H136.033V159.124H140V156.314H142ZM0 160.124V156.352H2V159.124H6.34935V161.124H1H0V160.124ZM27.7467 161.124H17.048V159.124H27.7467V161.124ZM49.1441 161.124H38.4454V159.124H49.1441V161.124ZM70.5415 161.124H59.8428V159.124H70.5415V161.124ZM85.5895 161.124H81.2402V159.124H86.5895H87.5895V160.124V164.733H85.5895V161.124ZM120.131 159.124H121.131H126.098V161.124H122.131V164.733H120.131V160.124V159.124ZM85.5895 183.171V173.952H87.5895V183.171H85.5895ZM122.131 173.952V183.171H120.131V173.952H122.131ZM85.5895 197V192.39H87.5895V196H90.9072V198H86.5895H85.5895V197ZM122.131 192.39V197V198H121.131H116.813V196H120.131V192.39H122.131ZM108.178 198H99.5426V196H108.178V198ZM433.061 4H432.529L432.231 4.44181L429.605 8.34657L431.264 9.46295L433.594 6H437.57V4H433.061ZM455.605 4H446.587V6H455.605V4ZM469.131 4H464.622V6H468.131V10.1937H470.131V5V4H469.131ZM424.351 16.1561L419.097 23.9656L420.756 25.082L426.01 17.2725L424.351 16.1561ZM470.131 30.9683V20.581H468.131V30.9683H470.131ZM413.843 31.7752L408.589 39.5847L410.249 40.701L415.502 32.8915L413.843 31.7752ZM470.131 51.7429V41.3556H468.131V51.7429H470.131ZM403.335 47.3942L398.082 55.2037L399.741 56.3201L404.995 48.5106L403.335 47.3942ZM435.59 55.5905V52.3618L433.765 55.0252L430.593 59.6538L432.243 60.7843L433.59 58.8191V60.219H435.59V55.5905ZM470.131 72.5175V62.1302H468.131V72.5175H470.131ZM392.828 63.0132L387.574 70.8228L389.233 71.9391L394.487 64.1296L392.828 63.0132ZM419.557 79.2986L425.9 70.0414L424.25 68.911L417.908 78.1681L419.557 79.2986ZM433.59 69.4762V78.7333H435.59V69.4762H433.59ZM382.32 78.6323L377.066 86.4418L378.726 87.5582L383.98 79.7487L382.32 78.6323ZM470.131 93.2921V82.9048H468.131V93.2921H470.131ZM406.872 97.8129L413.215 88.5557L411.565 87.4252L405.222 96.6824L406.872 97.8129ZM433.59 87.9905V97.2476H435.59V87.9905H433.59ZM371.812 94.2513L366.559 102.061L368.218 103.177L373.472 95.3677L371.812 94.2513ZM470.131 114.067V103.679H468.131V114.067H470.131ZM394.186 116.327L400.529 107.07L398.879 105.94L392.536 115.197L394.186 116.327ZM433.59 106.505V115.762H435.59V106.505H433.59ZM361.305 109.87L356.051 117.68L357.71 118.796L362.964 110.987L361.305 109.87ZM387.844 125.584L385.745 128.648H388.076V130.648H383.847H381.95L383.022 129.082L386.194 124.454L387.844 125.584ZM470.131 124.454V128.648H474.098V130.648H469.131H468.131V129.648V124.454H470.131ZM433.59 125.019V128.648H430.361V130.648H434.59H435.59V129.648V125.019H433.59ZM350.797 125.489L348.17 129.394L348 129.647V129.952V133.724H350V130.257L352.457 126.606L350.797 125.489ZM404.99 128.648H396.533V130.648H404.99V128.648ZM421.904 128.648H413.447V130.648H421.904V128.648ZM489 128.648H484.033V130.648H488V133.457H490V129.648V128.648H489ZM490 148.695V141.076H488V148.695H490ZM348 141.267V148.81H350V141.267H348ZM490 160.124V156.314H488V159.124H484.033V161.124H489H490V160.124ZM348 156.352V160.124V161.124H349H354.349V159.124H350V156.352H348ZM365.048 161.124H375.747V159.124H365.048V161.124ZM386.445 161.124H397.144V159.124H386.445V161.124ZM407.843 161.124H418.542V159.124H407.843V161.124ZM429.24 161.124H433.59V164.733H435.59V160.124V159.124H434.59H429.24V161.124ZM469.131 159.124H468.131V160.124V164.733H470.131V161.124H474.098V159.124H469.131ZM433.59 173.952V183.171H435.59V173.952H433.59ZM470.131 183.171V173.952H468.131V183.171H470.131ZM433.59 192.39V197V198H434.59H438.907V196H435.59V192.39H433.59ZM470.131 197V192.39H468.131V196H464.813V198H469.131H470.131V197ZM447.543 198H456.178V196H447.543V198Z"
      fill="#E1DEDA"></path>
  </symbol>
  <symbol xmlns="http://www.w3.org/2000/svg" viewBox="0 0 15 9" id="down_arrow">
    <path fill-rule="evenodd" clip-rule="evenodd"
      d="M14.8788 1.46376L13.4339 3.6646e-07L7.43942 6.07249L1.44495 -6.31608e-08L-3.2942e-07 1.46376L7.43942 9L14.8788 1.46376Z"
    ></path>
  </symbol>
  <symbol xmlns="http://www.w3.org/2000/svg" viewBox="0 0 95 95" id="circle">
    <circle cx="47.5" cy="47.5" r="47.5"></circle>
  </symbol>
  <symbol fill="none" xmlns="http://www.w3.org/2000/svg" viewBox="0 0 158 158"
    id="one-fourth-circle">
    <path d="M129 -3.84172e-06C129 71.2447 71.2447 129 7.69978e-07 129" stroke="#FFCA78"
      stroke-width="58"></path>
  </symbol>
  <symbol xmlns="http://www.w3.org/2000/svg" viewBox="0 0 279 141" id="one-two-circle">
    <path
      d="M250 -3.17821e-06C250 61.8559 200.527 112 139.5 112C78.4725 112 29 61.8559 29 6.48201e-06"
    ></path>
  </symbol>
  <symbol fill="none" xmlns="http://www.w3.org/2000/svg" viewBox="0 0 85 107" id="packet-fruit">
    <path
      d="M80.6703 86.5189V24.6604H55.5487V13.2525C55.5487 5.95459 49.6141 0 42.2962 0C34.9783 0 29.0437 5.93455 29.0437 13.2525V24.6604H3.92214V86.5389L0.433594 106.909H84.1588L80.6703 86.5189ZM35.0585 13.2525C35.0585 9.2627 38.3064 6.01474 42.2962 6.01474C46.286 6.01474 49.5339 9.2627 49.5339 13.2525V24.6604H35.0785L35.0585 13.2525ZM7.57109 100.894L9.93689 87.0401V30.6752H74.6756V87.0401L77.0213 100.894H7.57109Z"
      fill="#FF7D4E"></path>
    <path
      d="M51.0571 49.2963C49.9544 45.507 46.4458 42.7202 42.2956 42.7202C38.1454 42.7202 34.6368 45.507 33.5341 49.2963C30.3664 50.8 27.6597 53.1057 25.6348 56.0128C23.2489 59.4212 22.0059 63.431 22.0059 67.6213C22.0059 78.8087 31.1082 87.931 42.3156 87.931C53.5231 87.931 62.6054 78.8087 62.6054 67.6012C62.6054 63.431 61.3423 59.4212 58.9765 55.9928C56.9315 53.1057 54.2248 50.8 51.0571 49.2963ZM39.188 51.8426C39.188 50.1183 40.5914 48.735 42.2956 48.735C43.9998 48.735 45.4032 50.1384 45.4032 51.8426V55.8725H42.2956C40.5714 55.8725 39.188 54.469 39.188 52.7648V51.8426ZM42.2956 81.8962C34.4163 81.8962 28.0006 75.4805 28.0006 67.6012C28.0006 63.03 30.226 58.7595 33.8148 56.113C35.1581 59.4813 38.4462 61.8671 42.2956 61.8671H51.418V56.6143C54.6058 59.2808 56.5906 63.3107 56.5906 67.6012C56.5906 75.4805 50.1749 81.8962 42.2956 81.8962Z"
      fill="#FF7D4E"></path>
    <path
      d="M42.2962 69.867C41.2938 69.867 40.4718 69.0449 40.4718 68.0425H34.457C34.457 72.3731 37.9857 75.8817 42.2962 75.8817C46.6068 75.8817 50.1355 72.353 50.1355 68.0425H44.1207C44.1207 69.0449 43.2987 69.867 42.2962 69.867Z"
      fill="#FF7D4E"></path>
  </symbol>
  <symbol fill="none" xmlns="http://www.w3.org/2000/svg" viewBox="0 0 88 97" id="ground-tree">
    <path
      d="M67.193 73.4154C65.9657 73.4154 64.7384 73.516 63.5312 73.7373C59.0849 69.4921 53.3308 66.8364 47.2547 66.1724V63.7581L56.9925 57.9637C60.3926 59.694 63.994 60.6195 67.4746 60.6195C70.8748 60.6195 74.0335 59.7745 76.8703 58.0845C83.0872 54.4026 86.588 47.1597 86.2459 38.7498L86.1856 37.1201L84.7772 36.2751C80.9143 33.9614 76.7295 32.7341 72.7057 32.7341C69.3055 32.7341 66.1468 33.5791 63.3099 35.2692C57.5558 38.6894 54.1355 45.1477 53.9343 52.773L47.295 56.7163V42.9749C55.2823 38.0657 59.9902 30.4606 59.9902 22.3123C59.9902 13.6409 54.6586 5.57305 45.7257 0.744415L44.2368 0L42.8083 0.784653C33.8754 5.61329 28.5236 13.6811 28.5236 22.3526C28.5236 30.5009 33.2316 38.106 41.2189 43.0151V56.7365L34.5796 52.7931C34.3784 45.1679 30.9581 38.7096 25.204 35.2893C22.3872 33.6194 19.2285 32.7542 15.8082 32.7542C11.7844 32.7542 7.59956 33.9815 3.73665 36.2952L2.32829 37.1403L2.26794 38.7699C1.92591 47.1798 5.42667 54.4227 11.6435 58.1046C14.4602 59.7745 17.619 60.6396 21.0393 60.6396C24.5199 60.6396 28.1011 59.7342 31.5214 57.9839L41.2592 63.7782V66.1925C35.1831 66.8565 29.429 69.5122 24.9826 73.7574C23.7755 73.5361 22.5482 73.4355 21.3209 73.4355C9.95352 73.4154 0.71875 82.6501 0.71875 93.9773V96.9952H87.7549V93.9773C87.7549 82.6501 78.5403 73.4154 67.193 73.4154ZM66.3681 40.4801C68.2392 39.3735 70.3718 38.8102 72.6654 38.8102C75.12 38.8102 77.6952 39.454 80.19 40.6812C79.9888 46.1135 77.6349 50.6202 73.772 52.9138C71.9009 54.0204 69.7682 54.5837 67.4746 54.5837C66.187 54.5837 64.8792 54.4026 63.5715 54.0606L71.4784 49.3728L68.4001 44.182L60.4731 48.8899C61.3986 45.188 63.4508 42.2103 66.3681 40.4801ZM21.0191 54.5837C18.7054 54.5837 16.5929 54.0204 14.7218 52.9138C10.8388 50.6001 8.50492 46.1135 8.30373 40.6812C10.7985 39.454 13.3738 38.8102 15.8284 38.8102C18.1421 38.8102 20.2546 39.3735 22.1257 40.4801C25.043 42.2103 27.0952 45.2081 28.0207 48.8899L20.1339 44.2021L17.0154 49.3728L24.9223 54.0606C23.6145 54.4227 22.2867 54.5837 21.0191 54.5837ZM34.5594 22.3526C34.5594 16.3771 38.1407 10.7236 44.2368 6.92104C50.333 10.7236 53.9142 16.3771 53.9142 22.3526C53.9142 27.2617 51.4999 31.9495 47.2547 35.5709V22.3526H41.2189V35.5709C36.9939 31.9495 34.5594 27.2415 34.5594 22.3526ZM7.07645 90.9594C8.46469 84.4005 14.3194 79.4512 21.2807 79.4512C22.5683 79.4512 23.856 79.6322 25.1235 79.9743L26.894 80.4571L28.1414 79.1091C32.286 74.6225 38.1608 72.0473 44.2569 72.0473C50.3531 72.0473 56.2279 74.6225 60.3725 79.1091L61.6199 80.4571L63.3904 79.9743C64.6378 79.6322 65.9254 79.4512 67.2332 79.4512C74.2146 79.4512 80.0492 84.4005 81.4374 90.9594H7.07645Z"
      fill="#FFBE5A"></path>
  </symbol>
  <symbol fill="none" xmlns="http://www.w3.org/2000/svg" viewBox="0 0 103 84" id="vitamin-apple">
    <path
      d="M95.6153 19.9986V0H50.2262V19.9986L43.0838 32.3519C40.75 32.4927 38.5167 32.8548 36.4646 33.1767C35.8811 33.2773 35.2977 33.3578 34.7343 33.4383V27.986C34.7343 23.0567 38.7582 19.0329 43.6874 19.0329V12.9971C38.396 12.9971 33.7485 15.7534 31.0927 19.8779C30.63 19.2341 30.1471 18.6506 29.6039 18.1074C26.8677 15.3913 22.8237 13.6811 17.8743 13.1781C14.3132 12.816 11.4764 13.1781 11.3557 13.1983L9.08219 13.5001L8.7804 15.7735C8.76028 15.8943 8.39813 18.7311 8.76028 22.2922C9.2029 26.6178 10.5911 30.2796 12.764 32.9554C8.53896 34.062 5.29976 36.5769 3.08663 40.4197C-0.434249 46.5762 -0.99759 56.5353 1.67828 65.8103C3.20735 71.1016 6.34596 75.6486 10.7521 78.9482C15.1582 82.2477 20.3892 83.9981 25.9019 83.9981H102.999V32.7542L95.6153 19.9986ZM69.3798 17.7855V6.03579H76.4618V17.7855H69.3798ZM82.4976 6.03579H89.5796V17.7855H82.4976V6.03579ZM56.262 6.03579H63.344V17.7855H56.262V6.03579ZM17.3915 19.1938C19.8259 19.4554 23.1657 20.24 25.3386 22.3928C28.2358 25.29 28.6985 30.1588 28.6985 33.0963H28.6784C25.741 33.0963 20.852 32.6134 17.995 29.7565C15.0979 26.8593 14.6351 21.9904 14.6351 19.053C15.4399 19.053 16.3654 19.0731 17.3915 19.1938ZM25.9019 77.9825C17.3915 77.9825 9.80648 72.3088 7.47264 64.1605C5.25952 56.495 5.60154 48.1656 8.31765 43.4376C11.7782 37.3817 18.1158 37.8847 26.0428 39.1522C28.1151 39.4741 30.0666 39.796 31.7365 39.796C33.4064 39.796 35.358 39.4741 37.4303 39.1522C39.1404 38.8705 40.9914 38.5888 42.8625 38.4279V77.9825H25.9019ZM96.9633 77.9825H48.8782V34.3839L54.9743 23.8213H90.8471L96.9432 34.3839L96.9633 77.9825Z"
      fill="#7E70D8"></path>
    <path
      d="M70.4066 38.3877L60.4073 48.387C56.2627 52.5316 56.2627 59.2715 60.4073 63.4362C62.4796 65.5085 65.1957 66.5547 67.9319 66.5547C70.648 66.5547 73.3842 65.5085 75.4565 63.4362L85.4558 53.4369C89.6004 49.2924 89.6004 42.5524 85.4558 38.3877C81.2911 34.223 74.5511 34.223 70.4066 38.3877ZM64.6726 59.1508C62.8819 57.3602 62.8819 54.4429 64.6726 52.6523L67.5295 49.7953L74.028 56.2939L71.1711 59.1508C69.3805 60.9414 66.4632 60.9414 64.6726 59.1508ZM81.1704 49.1515L78.3134 52.0085L71.8149 45.5099L74.6719 42.653C75.5772 41.7476 76.7441 41.305 77.9312 41.305C79.1182 41.305 80.2851 41.7476 81.1905 42.653C82.961 44.4436 82.961 47.3609 81.1704 49.1515Z"
      fill="#7E70D8"></path>
  </symbol>
  <symbol xmlns="http://www.w3.org/2000/svg" viewBox="0 0 1505 1731"
    id="logo-background">
    <path fill-rule="evenodd" clip-rule="evenodd"
      d="M549.145 730.384H955.034V1002.72C955.034 1111.66 863.983 1200.3 752.089 1200.3C640.195 1200.3 549.145 1111.66 549.145 1002.72V730.384Z"></path>
    <path fill-rule="evenodd" clip-rule="evenodd"
      d="M1229.69 730.384V1001.83C1229.69 1257.3 1015.6 1464.88 752.09 1464.88C488.584 1464.88 274.485 1257.3 274.485 1001.83V730.384H0V1001.83C0 1404.2 337.068 1731 752.09 1731C1167.11 1731 1504.18 1404.2 1504.18 1001.83V730.384H1229.69Z"></path>
    <path fill-rule="evenodd" clip-rule="evenodd"
      d="M752.09 0C488.632 0 274.572 206.413 274.572 460.46V730.384H549.007V460.46C549.007 352.49 640.12 264.632 752.09 264.632C864.059 264.632 955.172 352.49 955.172 460.46V730.384H1229.61V460.46C1229.61 206.413 1015.55 0 752.09 0Z"></path>
  </symbol>
  <symbol fill="none" xmlns="http://www.w3.org/2000/svg" viewBox="0 0 99 99" id="hand-heart">
    <path
      d="M90.3165 5.80078C89.1754 5.80078 88.1117 6.01348 87.1061 6.41953C86.1004 2.72637 82.716 0 78.7126 0C73.9164 0 70.0098 3.90586 70.0098 8.70117V20.4381C67.4956 18.2918 64.2852 17.035 60.746 17.035C54.9441 17.035 51.2696 19.4133 49.1035 21.6176C46.8795 19.4133 43.1469 17.035 37.345 17.035C34.27 17.035 31.369 17.9824 28.9902 19.7613V8.70117C28.9902 3.90586 25.1029 0 20.3067 0C16.3034 0 12.9189 2.72637 11.9133 6.41953C10.9076 6.01348 9.84391 5.80078 8.70287 5.80078C3.90662 5.80078 0 9.70664 0 14.502V40.5281V40.7021C0.0193397 49.2293 3.8486 57.1764 10.4821 62.5131C14.8722 66.0709 17.4057 71.3303 17.4057 76.9957V99H81.6136V76.9957C81.6136 71.3496 84.1471 66.0709 88.5372 62.5324C95.1707 57.1957 98.9807 49.2293 99 40.7215V14.5213C99 9.70664 95.1127 5.80078 90.3165 5.80078ZM75.8117 8.70117C75.8117 7.09629 77.1074 5.80078 78.7126 5.80078C80.3178 5.80078 81.6136 7.09629 81.6136 8.70117V31.9043C79.7376 31.2469 77.6876 31.2469 75.8117 31.9043V8.70117ZM17.3864 8.70117C17.3864 7.09629 18.7015 5.80078 20.3067 5.80078C21.9119 5.80078 23.2077 7.09629 23.2077 8.70117V29.1006C23.0336 29.9707 22.9176 30.8795 22.8595 31.7883C21.0609 31.2275 19.1076 31.2855 17.3864 31.9043V8.70117ZM46.6087 93.1992H23.2077V81.2109H46.6087V93.1992ZM46.6087 75.4102H23.1496C22.7242 68.6039 19.4751 62.3197 14.118 58.0078C8.85759 53.7732 5.80191 47.4504 5.78257 40.7021V14.5213C5.78257 12.9164 7.09768 11.6209 8.70287 11.6209C10.3081 11.6209 11.6038 12.9164 11.6038 14.5213V40.1414C11.6038 42.365 12.4548 44.5887 14.1567 46.2902L25.0643 57.1957L29.1643 53.0965L18.2567 42.1523C17.135 41.0309 17.135 39.1746 18.2567 38.0531C19.3784 36.9316 21.1963 36.9123 22.3567 38.0531L36.3587 52.0523L36.436 51.975L42.354 57.8338C45.1002 60.5795 46.6087 64.2147 46.6087 68.0818V75.4102ZM46.454 53.7539L29.5317 37.009C29.319 36.4869 29.1256 35.9648 28.9902 35.4428V29.7387C30.0346 25.6588 33.303 22.8357 37.345 22.8357C43.9398 22.8357 46.3186 27.3217 46.512 27.6891L49.2196 34.1473L51.8111 27.6117C51.9852 27.2443 54.2092 22.8164 60.746 22.8164C65.7357 22.8164 69.6423 27.1283 69.6423 32.6391C69.6423 34.6113 69.1395 36.4289 68.0951 38.3432L58.3673 47.9531L58.3866 47.9725L52.5653 53.7539C51.3856 54.9334 50.3606 56.2482 49.5097 57.6404C48.6587 56.2482 47.6337 54.9334 46.454 53.7539ZM75.8117 93.1992H52.4106V81.2109H75.8117V93.1992ZM93.2174 40.5088V40.6828C93.1981 47.4504 90.1618 53.7539 84.9014 57.9885C79.5443 62.3004 76.2952 68.5846 75.8697 75.3908H52.3913V68.1012C52.3913 64.234 53.9191 60.5795 56.646 57.8531L76.6433 38.0531L76.6626 38.0338C77.7843 36.9123 79.6409 36.9123 80.7626 38.0338C81.8844 39.1553 81.8844 41.0115 80.7626 42.133L69.855 53.0385L73.9551 57.1377L84.8627 46.2322C86.5646 44.5307 87.3768 42.307 87.3962 40.0834V14.502C87.3962 12.8971 88.7113 11.6016 90.3165 11.6016C91.9217 11.6016 93.2174 12.8971 93.2174 14.502V40.5088Z"
      fill="#FFBE5A"></path>
    <path
      d="M75.4944 31.9181C75.4555 30.9992 75.3388 30.0802 75.1444 29.2004C73.7054 22.7287 69.3302 19.7568 69.3302 19.7568C66.9384 17.958 64.0216 17 60.9298 17C55.0961 17 51.3432 19.4049 49.1069 21.6338L49.0097 21.7511L48.893 21.6338C46.6568 19.4049 42.9039 17 37.0702 17C33.9784 17 31.0616 17.958 28.6698 19.7568C28.6698 19.7568 24.2946 22.7287 22.8556 29.2004C22.6806 30.0802 22.5639 30.9992 22.5056 31.9181C22.5056 31.9181 22.3111 34.4599 22 38.253L36.0785 52.4086L36.1563 52.3303L48.9319 64.8827L48.9708 64.9804L48.9903 64.9609L49.0097 64.9804L49.0486 64.8827L61.8243 52.3303L61.9021 52.4086L75.9806 38.253C75.6889 34.4599 75.4944 31.9181 75.4944 31.9181ZM69.3302 35.5939C69.1941 36.1218 69.0191 36.6497 68.7857 37.1776L51.771 54.1096C50.7015 55.1849 49.7875 56.3385 48.9903 57.5703C48.193 56.3385 47.2791 55.1654 46.2096 54.1096L29.1948 37.1776C28.9809 36.6497 28.7865 36.1218 28.6503 35.5939V29.8456C29.7198 25.7202 33.0061 22.8656 37.0702 22.8656C43.7011 22.8656 46.0929 27.4016 46.2874 27.7731L48.893 34.0297L49.0097 34.3035V34.2839V34.3035L49.1264 34.0297L51.7321 27.7731C51.9265 27.4016 54.3183 22.8656 60.9492 22.8656C65.0328 22.8656 68.2996 25.7202 69.3497 29.8456V35.5939H69.3302Z"
      fill="#FF7D4E"></path>
  </symbol>
  <symbol fill="none" xmlns="http://www.w3.org/2000/svg" viewBox="0 0 97 90" id="hands">
    <path
      d="M87.8753 9.35737C77.193 -1.28476 60.6771 -2.4169 48.5174 4.96089C36.1115 -2.47351 19.5009 -1.05833 9.04586 9.35737C-3.47366 21.8298 -2.73499 42.265 9.63301 54.5676L17.8152 62.719C17.8152 62.719 17.8152 62.719 17.8342 62.7379C19.4062 64.304 21.4517 65.1342 23.5162 65.2474C23.6109 67.3042 24.4632 69.342 26.0353 70.9081C27.5695 72.4365 29.5771 73.3234 31.7174 73.4177C31.831 75.5499 32.7023 77.55 34.2364 79.0784C35.7706 80.6068 37.7783 81.4937 39.9185 81.588C40.0132 83.6447 40.8655 85.6826 42.4376 87.2487C45.8089 90.6074 51.2827 90.6074 54.654 87.2487L62.8552 79.0784C64.3893 77.55 65.2795 75.5499 65.3742 73.4177C67.4387 73.3234 69.4843 72.4743 71.0563 70.9081C72.5905 69.3797 73.4807 67.3796 73.5754 65.2474C75.7156 65.1531 77.7233 64.2662 79.2575 62.7379C80.7916 61.2095 81.6818 59.2093 81.7765 57.0771C83.9168 56.9828 85.9244 56.0959 87.4586 54.5676C99.9402 42.114 100.243 21.6788 87.8753 9.35737ZM26.0353 58.7376C24.8799 59.8886 23.0048 59.8886 21.8495 58.7376C20.6941 57.5866 20.6941 55.7186 21.8495 54.5676L30.562 45.8878C31.7174 44.7368 33.5925 44.7368 34.7478 45.8878C35.9032 47.0388 35.9032 48.9069 34.7478 50.0579C32.797 52.0014 27.1717 57.6055 26.0353 58.7376ZM30.0506 66.9079C28.8953 65.7569 28.8953 63.8889 30.0506 62.7379L38.2518 54.5676C39.4071 53.4165 41.2822 53.4165 42.4376 54.5676C43.5929 55.7186 43.5929 57.5866 42.4376 58.7376L34.2364 66.9079C33.0811 68.0589 31.206 68.0589 30.0506 66.9079ZM38.2518 75.0782C37.0964 73.9272 37.0964 72.0591 38.2518 70.9081L46.4529 62.7379C47.6083 61.5868 49.4833 61.5868 50.6387 62.7379C51.7941 63.8889 51.7941 65.7569 50.6387 66.9079L42.4376 75.0782C41.2822 76.2292 39.4071 76.2292 38.2518 75.0782ZM58.8209 75.0782L50.6198 83.2485C49.4644 84.3995 47.5893 84.3995 46.434 83.2485C45.2786 82.0975 45.2786 80.2294 46.434 79.0784L54.6351 70.9081C55.7905 69.7571 57.6655 69.7571 58.8209 70.9081C59.9763 72.0591 59.9763 73.9272 58.8209 75.0782ZM83.4243 50.5673C82.269 51.7183 80.3939 51.7183 79.2385 50.5673L62.8362 34.2267L58.8209 38.227L75.2232 54.5676C76.3785 55.7186 76.3785 57.5866 75.2232 58.7376C74.0678 59.8886 72.1927 59.8886 71.0374 58.7376L54.6351 42.397L50.6198 46.3973L67.022 62.7379C68.1774 63.8889 68.1774 65.7569 67.022 66.9079C65.8667 68.0589 63.9916 68.0589 62.8362 66.9079C61.3021 65.3795 59.2944 64.4927 57.1542 64.3983C57.0595 62.2661 56.1693 60.266 54.6351 58.7376C53.1009 57.2092 51.0933 56.3224 48.953 56.228C48.8583 54.1713 48.006 52.1335 46.434 50.5673C44.9945 49.1333 43.1573 48.303 41.2633 48.0955C41.3012 45.8501 40.4488 43.5858 38.7442 41.8876C35.3728 38.5289 29.8991 38.5289 26.5277 41.8876L17.8152 50.5673C17.0765 51.3032 16.5083 52.1335 16.0916 53.0203L13.6294 50.5673C3.4206 40.3969 2.81451 23.5469 13.0423 13.3576C20.9025 5.52696 33.422 3.77214 43.4982 8.69696C43.1194 9.0366 42.7596 9.37624 42.3997 9.73475L30.5052 21.5845C26.9065 25.1696 26.9065 30.9813 30.5052 34.5664C33.6114 37.6609 38.498 38.1138 42.1345 35.7174L60.4498 23.5469L83.4054 46.4161C84.5797 47.5483 84.5797 49.4163 83.4243 50.5673ZM87.4397 42.397L61.2074 16.2634L39.0094 31.0001C37.6078 31.9247 35.7327 31.736 34.5584 30.5662C33.1758 29.1887 33.1758 26.9622 34.5584 25.5847L46.4529 13.735C56.6807 3.54571 73.6322 3.16833 83.8599 13.3576C92.099 21.5656 93.3111 33.9814 88.4624 43.6235C88.1594 43.1895 87.8185 42.7744 87.4397 42.397Z"
      fill="#FF7D4E"></path>
  </symbol>
  <symbol fill="none" xmlns="http://www.w3.org/2000/svg" viewBox="0 0 120 19" id="rate">
    <path
      d="M10.8713 0.590764L13.1058 5.15105C13.2713 5.48271 13.5609 5.68999 13.892 5.73145L18.8988 6.47768C19.7678 6.60205 20.1402 7.67993 19.4781 8.30179L15.8781 11.8256C15.6299 12.0744 15.5057 12.406 15.5885 12.7792L16.4575 17.754C16.623 18.6246 15.6713 19.2879 14.9264 18.8734L10.4575 16.5103C10.1265 16.3445 9.75409 16.3445 9.46444 16.5103L4.95415 18.8734C4.16795 19.2879 3.25762 18.6246 3.42314 17.754L4.29209 12.7792C4.33347 12.4475 4.25071 12.0744 4.00244 11.8256L0.319728 8.30179C-0.300954 7.67993 0.0300763 6.60205 0.899031 6.47768L5.90586 5.73145C6.23689 5.68999 6.56792 5.48271 6.69206 5.15105L8.92651 0.590764C9.3403 -0.196921 10.4575 -0.196921 10.8713 0.590764Z"
      fill="#FFC329"></path>
    <path
      d="M36.1926 0.590764L38.4271 5.15105C38.5926 5.48271 38.8822 5.68999 39.2133 5.73145L44.2201 6.47768C45.089 6.60205 45.4615 7.67993 44.7994 8.30179L41.1994 11.8256C40.9512 12.0744 40.827 12.406 40.9098 12.7792L41.7787 17.754C41.9443 18.6246 40.9925 19.2879 40.2477 18.8734L35.7788 16.5103C35.4478 16.3445 35.0754 16.3445 34.7857 16.5103L30.2754 18.8734C29.4892 19.2879 28.5789 18.6246 28.7444 17.754L29.6134 12.7792C29.6548 12.4475 29.572 12.0744 29.3237 11.8256L25.641 8.30179C25.0203 7.67993 25.3514 6.60205 26.2203 6.47768L31.2272 5.73145C31.5582 5.68999 31.8892 5.48271 32.0133 5.15105L34.2478 0.590764C34.6616 -0.196921 35.7788 -0.196921 36.1926 0.590764Z"
      fill="#FFC329"></path>
    <path
      d="M61.0163 0.590764L63.3749 5.15105C63.5496 5.48271 63.8553 5.68999 64.2048 5.73145L69.4897 6.47768C70.407 6.60205 70.8001 7.67993 70.1012 8.30179L66.3013 11.8256C66.0392 12.0744 65.9082 12.406 65.9955 12.7792L66.9128 17.754C67.0875 18.6246 66.0829 19.2879 65.2967 18.8734L60.5795 16.5103C60.2301 16.3445 59.837 16.3445 59.5313 16.5103L54.7704 18.8734C53.9405 19.2879 52.9796 18.6246 53.1543 17.754L54.0716 12.7792C54.1152 12.4475 54.0279 12.0744 53.7658 11.8256L49.8785 8.30179C49.2233 7.67993 49.5728 6.60205 50.49 6.47768L55.775 5.73145C56.1244 5.68999 56.4738 5.48271 56.6049 5.15105L58.9634 0.590764C59.4002 -0.196921 60.5795 -0.196921 61.0163 0.590764Z"
      fill="#FFC329"></path>
    <path
      d="M85.7336 0.590764L87.9681 5.15105C88.1336 5.48271 88.4232 5.68999 88.7543 5.73145L93.7611 6.47768C94.6301 6.60205 95.0025 7.67993 94.3404 8.30179L90.7405 11.8256C90.4922 12.0744 90.368 12.406 90.4508 12.7792L91.3198 17.754C91.4853 18.6246 90.5336 19.2879 89.7887 18.8734L85.3198 16.5103C84.9888 16.3445 84.6164 16.3445 84.3267 16.5103L79.8165 18.8734C79.0303 19.2879 78.1199 18.6246 78.2854 17.754L79.1544 12.7792C79.1958 12.4475 79.113 12.0744 78.8647 11.8256L75.182 8.30179C74.5614 7.67993 74.8924 6.60205 75.7613 6.47768L80.7682 5.73145C81.0992 5.68999 81.4302 5.48271 81.5544 5.15105L83.7888 0.590764C84.2026 -0.196921 85.3198 -0.196921 85.7336 0.590764Z"
      fill="#FFC329"></path>
    <path
      d="M111.055 0.590764L113.289 5.15105C113.455 5.48271 113.745 5.68999 114.076 5.73145L119.082 6.47768C119.951 6.60205 120.324 7.67993 119.662 8.30179L116.062 11.8256C115.813 12.0744 115.689 12.406 115.772 12.7792L116.641 17.754C116.807 18.6246 115.855 19.2879 115.11 18.8734L110.641 16.5103C110.31 16.3445 109.938 16.3445 109.648 16.5103L105.138 18.8734C104.352 19.2879 103.441 18.6246 103.607 17.754L104.476 12.7792C104.517 12.4475 104.434 12.0744 104.186 11.8256L100.503 8.30179C99.8826 7.67993 100.214 6.60205 101.083 6.47768L106.089 5.73145C106.42 5.68999 106.752 5.48271 106.876 5.15105L109.11 0.590764C109.524 -0.196921 110.641 -0.196921 111.055 0.590764Z"
      fill="#FFC329"></path>
  </symbol>
  <symbol fill="none" xmlns="http://www.w3.org/2000/svg" viewBox="0 0 86 98" id="talk">
    <path d="M51.6005 22.9048H45.8672V28.631H51.6005V22.9048Z" fill="#FFBE5A"></path>
    <path
      d="M71.6665 0H14.3334C9.59383 0 5.7334 3.85563 5.7334 8.58928V31.494C5.7334 36.2277 9.59383 40.0833 14.3334 40.0833H34.4V54.017L55.3266 40.0833H71.6665C76.406 40.0833 80.2665 36.2277 80.2665 31.494V8.58928C80.2665 3.85563 76.406 0 71.6665 0ZM74.5332 31.494C74.5332 33.0783 73.2527 34.3571 71.6665 34.3571H53.6066L40.1333 43.3282V34.3571H14.3334C12.7472 34.3571 11.4667 33.0783 11.4667 31.494V8.58928C11.4667 7.00504 12.7472 5.72619 14.3334 5.72619H71.6665C73.2527 5.72619 74.5332 7.00504 74.5332 8.58928V31.494Z"
      fill="#FFBE5A"></path>
    <path d="M40.1335 22.9048H17.2002V28.631H40.1335V22.9048Z" fill="#FFBE5A"></path>
    <path
      d="M17.2 45.8096C10.8743 45.8096 5.7334 50.9441 5.7334 57.2619C5.7334 63.5798 10.8743 68.7143 17.2 68.7143C23.5258 68.7143 28.6667 63.5798 28.6667 57.2619C28.6667 50.9441 23.5258 45.8096 17.2 45.8096ZM17.2 62.9881C14.0467 62.9881 11.4667 60.4113 11.4667 57.2619C11.4667 54.1125 14.0467 51.5358 17.2 51.5358C20.3533 51.5358 22.9333 54.1125 22.9333 57.2619C22.9333 60.4113 20.3533 62.9881 17.2 62.9881Z"
      fill="#FF7D4E"></path>
    <path
      d="M20.0666 68.7144H17.1999H14.3333C6.42131 68.7144 0 75.1277 0 83.0298V97.727H34.3999V83.0298C34.3999 75.1277 27.9786 68.7144 20.0666 68.7144ZM28.6666 92.0009H5.73331V83.0298C5.73331 78.2962 9.59375 74.4405 14.3333 74.4405H20.0666C24.8061 74.4405 28.6666 78.2962 28.6666 83.0298V92.0009Z"
      fill="#FF7D4E"></path>
    <path
      d="M68.7996 45.8096C62.4739 45.8096 57.333 50.9441 57.333 57.2619C57.333 63.5798 62.4739 68.7143 68.7996 68.7143C75.1254 68.7143 80.2663 63.5798 80.2663 57.2619C80.2663 50.9441 75.1254 45.8096 68.7996 45.8096ZM68.7996 62.9881C65.6463 62.9881 63.0663 60.4113 63.0663 57.2619C63.0663 54.1125 65.6463 51.5358 68.7996 51.5358C71.953 51.5358 74.5329 54.1125 74.5329 57.2619C74.5329 60.4113 71.953 62.9881 68.7996 62.9881Z"
      fill="#FF7D4E"></path>
    <path
      d="M71.6672 68.7144H68.8005H65.9339C58.0219 68.7144 51.6006 75.1277 51.6006 83.0298V97.727H86.0005V83.0298C86.0005 75.1277 79.5792 68.7144 71.6672 68.7144ZM80.2672 92.0009H57.3339V83.0298C57.3339 78.2962 61.1943 74.4405 65.9339 74.4405H71.6672C76.4067 74.4405 80.2672 78.2962 80.2672 83.0298V92.0009Z"
      fill="#FF7D4E"></path>
    <path d="M68.8 11.4524H17.2002V17.1786H68.8V11.4524Z" fill="#FFBE5A"></path>
  </symbol>
  <symbol fill="none" xmlns="http://www.w3.org/2000/svg" viewBox="0 0 32 32" id="burger-menu">
    <path fill-rule="evenodd" clip-rule="evenodd"
      d="M4 7H28V9H4V7ZM4 15H28V17H4V15ZM28 23H4V25H28V23Z" fill="black"></path>
  </symbol>
  <symbol xmlns="http://www.w3.org/2000/svg" viewBox="0 0 32 32" id="close">
    <path d="M8 24L24 8" stroke-width="2"></path>
    <path d="M24 24L8 8" stroke-width="2"></path>
  </symbol>
  <symbol fill="none" xmlns="http://www.w3.org/2000/svg" viewBox="0 0 90 90"
    id="slider-button-right">
    <g filter="url(#filter0_d_537_4574)">
      <circle cx="35" cy="35" r="35" transform="matrix(-1 0 0 1 80 5)" fill="white"></circle>
    </g>
    <path fill-rule="evenodd" clip-rule="evenodd"
      d="M43.4638 48.6855L42 47.2405L48.0725 41.2461L42 35.2516L43.4638 33.8066L51 41.2461L43.4638 48.6855Z"
      fill="black"></path>
    <defs>
      <filter id="filter0_d_537_4574" x="0" y="0" width="90" height="90"
        filterUnits="userSpaceOnUse" color-interpolation-filters="sRGB">
        <feFlood flood-opacity="0" result="BackgroundImageFix"></feFlood>
        <feColorMatrix in="SourceAlpha" type="matrix"
          values="0 0 0 0 0 0 0 0 0 0 0 0 0 0 0 0 0 0 127 0" result="hardAlpha"></feColorMatrix>
        <feOffset dy="5"></feOffset>
        <feGaussianBlur stdDeviation="5"></feGaussianBlur>
        <feColorMatrix type="matrix" values="0 0 0 0 0 0 0 0 0 0 0 0 0 0 0 0 0 0 0.1 0"></feColorMatrix>
        <feBlend mode="normal" in2="BackgroundImageFix" result="effect1_dropShadow_537_4574"></feBlend>
        <feBlend mode="normal" in="SourceGraphic" in2="effect1_dropShadow_537_4574" result="shape"></feBlend>
      </filter>
    </defs>
  </symbol>
  <symbol fill="none" xmlns="http://www.w3.org/2000/svg" viewBox="0 0 90 90" id="slider-button-left">
    <g filter="url(#filter0_d_535_924)">
      <circle cx="45" cy="40" r="35" fill="white"></circle>
    </g>
    <path fill-rule="evenodd" clip-rule="evenodd"
      d="M47.5362 48.6855L49 47.2405L42.9275 41.2461L49 35.2516L47.5362 33.8066L40 41.2461L47.5362 48.6855Z"
      fill="black"></path>
    <defs>
      <filter id="filter0_d_535_924" x="0" y="0" width="90" height="90" filterUnits="userSpaceOnUse"
        color-interpolation-filters="sRGB">
        <feFlood flood-opacity="0" result="BackgroundImageFix"></feFlood>
        <feColorMatrix in="SourceAlpha" type="matrix"
          values="0 0 0 0 0 0 0 0 0 0 0 0 0 0 0 0 0 0 127 0" result="hardAlpha"></feColorMatrix>
        <feOffset dy="5"></feOffset>
        <feGaussianBlur stdDeviation="5"></feGaussianBlur>
        <feColorMatrix type="matrix" values="0 0 0 0 0 0 0 0 0 0 0 0 0 0 0 0 0 0 0.1 0"></feColorMatrix>
        <feBlend mode="normal" in2="BackgroundImageFix" result="effect1_dropShadow_535_924"></feBlend>
        <feBlend mode="normal" in="SourceGraphic" in2="effect1_dropShadow_535_924" result="shape"></feBlend>
      </filter>
    </defs>
  </symbol>
  <symbol fill="none" xmlns="http://www.w3.org/2000/svg" viewBox="0 0 406 307" id="figure-2">
    <path d="M377 1.1993e-05C377 85.0519 307.996 154 222.875 154L183 154" stroke="#FFCA78"
      stroke-width="58"></path>
    <path d="M29 307C29 222.5 97.9481 154 183 154" stroke="#FFCA78" stroke-width="58"></path>
  </symbol>
</svg>